<svg id="3f468eaa-d7e9-487a-92ee-407b34c00f83" data-name="Layer 1" xmlns="http://www.w3.org/2000/svg" width="1366" height="768" viewBox="0 0 1366 768">
  <defs>
    <style>
      .\30 c424ab5-12a8-4db9-a518-501705404ebc, .\35 8a84af2-64ac-43c9-b299-f2b1e72397ac, .c038e819-0cbf-4426-9611-4817318dd960 {
        fill: #d4f3f8;
      }

      .\39 970f7f7-41f6-42f3-98cd-a6d277c464a5 {
        fill: #af8c92;
      }

      .\30 c424ab5-12a8-4db9-a518-501705404ebc, .\39 970f7f7-41f6-42f3-98cd-a6d277c464a5, .\39 ab2c670-583b-4e0b-b93d-6560418f1cd6, .c038e819-0cbf-4426-9611-4817318dd960 {
        stroke: #4b252b;
        stroke-miterlimit: 10;
      }

      .\39 970f7f7-41f6-42f3-98cd-a6d277c464a5, .\39 ab2c670-583b-4e0b-b93d-6560418f1cd6, .c038e819-0cbf-4426-9611-4817318dd960 {
        stroke-width: 1.58px;
      }

      .\39 ab2c670-583b-4e0b-b93d-6560418f1cd6 {
        fill: #dbf7d5;
      }

      .\30 c424ab5-12a8-4db9-a518-501705404ebc {
        stroke-width: 0.79px;
      }
    </style>
  </defs>
  <title>bground</title>
  <path class="58a84af2-64ac-43c9-b299-f2b1e72397ac" d="M485.17,586.1C757.45,620.35,1036.59,575,1036.59,575L1366,535.59V766.28H0V616.07S212.89,551.85,485.17,586.1Z"/>
  <path class="9970f7f7-41f6-42f3-98cd-a6d277c464a5" d="M232.22,215.11H466c-20.88-40.56-39.92-51.2-54.53-52.13-27.73-1.75-42.53,31.28-68.72,26.07-24.39-4.86-26.84-36.57-46.59-39.5C283.07,147.61,262.92,158.48,232.22,215.11Z"/>
  <path class="c038e819-0cbf-4426-9611-4817318dd960" d="M708.48,232.53c-27.73-1.75-42.53,31.28-68.71,26.06-24.4-4.85-26.85-36.56-46.6-39.49-11.18-1.65-27.45,6-51,43.26-7.35-5.05-14.58-11.25-24.35-10.64-9.23.59-21.25,7.31-34.45,32.94H763C742.13,244.09,723.1,233.45,708.48,232.53Z"/>
  <path class="9ab2c670-583b-4e0b-b93d-6560418f1cd6" d="M436.81,476.7c-3-6.31-83.65,6.41-99.27,49-15.76,42.93,41.21,98.33,40.8,98.6S321,558,339.49,530.4c7.22-10.79,19.82-6.41,50.67-21C413.43,498.43,438.67,480.64,436.81,476.7Z"/>
  <path class="c038e819-0cbf-4426-9611-4817318dd960" d="M730.5,412.56c-7.82.12-32.19,88.41,4,124.08,36.56,36,14.73,91.79,14.81,92.33s17.57-43.57-9.09-92.14c-7-12.76,2.64-23.21,2.05-61.46C741.87,446.51,735.38,412.49,730.5,412.56Z"/>
  <path class="c038e819-0cbf-4426-9611-4817318dd960" d="M781.21,366.34c9.5.14,7.51,90.12-4.92,150.57C760.45,594,749.46,628.32,749.36,629s18.18-38.35,20-111.82c.48-19.53-3.2-28.17-2.48-74.6C767.42,407.53,775.29,366.25,781.21,366.34Z"/>
  <path class="c038e819-0cbf-4426-9611-4817318dd960" d="M757.58,536.62c3.33,0,13.69,37.6-1.72,52.77s-6.27,39-6.3,39.26-7.47-18.53,3.87-39.18c3-5.43-1.13-9.87-.87-26.14C752.75,551.05,755.51,536.59,757.58,536.62Z"/>
  <path class="9ab2c670-583b-4e0b-b93d-6560418f1cd6" d="M559.22,438.14c-.55-11.4-130.31-42.61-180.49,11.91-50.62,55,.78,174.21,0,174.36s-45.12-135.95,0-166c17.64-11.77,33.93,2.71,89.6,0C510.34,456.34,559.56,445.24,559.22,438.14Z"/>
  <path class="9ab2c670-583b-4e0b-b93d-6560418f1cd6" d="M430.34,570.89c-.16-3.27-37.44-12.24-51.85,3.42s.22,50.06,0,50.1-13-39.06,0-47.7c5.06-3.38,9.74.78,25.74,0C416.3,576.12,430.44,572.93,430.34,570.89Z"/>
  <circle class="c038e819-0cbf-4426-9611-4817318dd960" cx="1030.73" cy="279.08" r="67.92"/>
  <polygon class="c038e819-0cbf-4426-9611-4817318dd960" points="1076.35 379.59 1032.57 334.24 991.92 382.41 993.03 319.39 930.22 324.71 975.57 280.93 927.4 240.28 990.42 241.39 985.1 178.58 1028.88 223.93 1069.53 175.76 1068.42 238.78 1131.23 233.46 1085.88 277.24 1134.05 317.89 1071.03 316.78 1076.35 379.59"/>
  <circle class="c038e819-0cbf-4426-9611-4817318dd960" cx="1030.73" cy="279.08" r="61.13"/>
  <circle class="c038e819-0cbf-4426-9611-4817318dd960" cx="1030.73" cy="279.08" r="55.02"/>
  <circle class="c038e819-0cbf-4426-9611-4817318dd960" cx="1030.73" cy="279.08" r="49.52"/>
  <circle class="c038e819-0cbf-4426-9611-4817318dd960" cx="1030.73" cy="279.08" r="44.57"/>
  <circle class="c038e819-0cbf-4426-9611-4817318dd960" cx="1030.73" cy="279.08" r="40.11"/>
  <circle class="c038e819-0cbf-4426-9611-4817318dd960" cx="1030.73" cy="279.08" r="36.1"/>
  <rect class="0c424ab5-12a8-4db9-a518-501705404ebc" x="658.72" y="311.78" width="4.74" height="34.12" rx="2.37" ry="2.37"/>
  <rect class="0c424ab5-12a8-4db9-a518-501705404ebc" x="620.81" y="280.98" width="4.74" height="34.12" rx="2.37" ry="2.37"/>
  <rect class="0c424ab5-12a8-4db9-a518-501705404ebc" x="605.01" y="344.17" width="4.74" height="34.12" rx="2.37" ry="2.37"/>
  <rect class="0c424ab5-12a8-4db9-a518-501705404ebc" x="506.29" y="316.52" width="4.74" height="34.12" rx="2.37" ry="2.37"/>
  <rect class="0c424ab5-12a8-4db9-a518-501705404ebc" x="521.69" y="432.63" width="4.74" height="7.27" rx="2.37" ry="2.37"/>
  <rect class="0c424ab5-12a8-4db9-a518-501705404ebc" x="567.1" y="313.36" width="4.74" height="34.12" rx="2.37" ry="2.37"/>
  <rect class="0c424ab5-12a8-4db9-a518-501705404ebc" x="554.47" y="368.65" width="4.74" height="34.12" rx="2.37" ry="2.37"/>
  <rect class="0c424ab5-12a8-4db9-a518-501705404ebc" x="722.7" y="369.44" width="4.74" height="34.12" rx="2.37" ry="2.37"/>
  <rect class="0c424ab5-12a8-4db9-a518-501705404ebc" x="684.79" y="330.74" width="4.74" height="42.02" rx="2.37" ry="2.37"/>
  <rect class="0c424ab5-12a8-4db9-a518-501705404ebc" x="668.99" y="401.82" width="4.74" height="34.12" rx="2.37" ry="2.37"/>
  <rect class="0c424ab5-12a8-4db9-a518-501705404ebc" x="633.45" y="333.9" width="4.74" height="49.92" rx="2.37" ry="2.37"/>
  <path class="0c424ab5-12a8-4db9-a518-501705404ebc" d="M521.69,437.44s-15-1.58-9.48,4.74-5.53,7.11.79,8.69,8.69,5.53,13.43.79,11.84-3.16,13.42-6.32-3.16-2.37-4-4.74-10.26-3.16-10.26-3.16"/>
</svg>
