<svg id="f8377269-3174-4a97-a398-1074b380e4b0" data-name="Layer 1" xmlns="http://www.w3.org/2000/svg" width="1.48in" height="4.27in" viewBox="0 0 106.59 307.12">
  <defs>
    <style>
      .\39 d536ebd-ae87-4c0e-8684-c6990807eb6e, .c7b847d0-0f24-43c2-8416-2767d54fb9be {
        fill: #deeed3;
      }

      .\39 d536ebd-ae87-4c0e-8684-c6990807eb6e, .c7b847d0-0f24-43c2-8416-2767d54fb9be, .d7f82dba-a3f1-4541-9beb-1c1a5fd6f7ac {
        stroke: #4b262b;
        stroke-miterlimit: 10;
      }

      .\39 d536ebd-ae87-4c0e-8684-c6990807eb6e, .d7f82dba-a3f1-4541-9beb-1c1a5fd6f7ac {
        stroke-width: 0.92px;
      }

      .f392dcaf-0905-48d9-b4ee-9b1731c322ce {
        fill: #d4eef4;
      }

      .d7f82dba-a3f1-4541-9beb-1c1a5fd6f7ac {
        fill: #af8c92;
      }

      .c7b847d0-0f24-43c2-8416-2767d54fb9be {
        stroke-width: 1.58px;
      }
    </style>
  </defs>
  <title>calm_plant</title>
  <g>
    <path class="9d536ebd-ae87-4c0e-8684-c6990807eb6e" d="M.54,261.5l16.89,39.06c0,3.37,16.06,6.1,35.86,6.1s35.86-2.73,35.86-6.1l17-39.06"/>
    <ellipse class="f392dcaf-0905-48d9-b4ee-9b1731c322ce" cx="53.29" cy="261.5" rx="52.84" ry="8.99"/>
    <ellipse class="d7f82dba-a3f1-4541-9beb-1c1a5fd6f7ac" cx="53.29" cy="261.5" rx="52.84" ry="8.99"/>
  </g>
  <path class="c7b847d0-0f24-43c2-8416-2767d54fb9be" d="M34.43,47c-7.83.12-32.19,88.41,4,124.07,36.55,36,14.73,91.8,14.81,92.34s17.57-43.57-9.09-92.15c-7-12.76,2.64-23.21,2-61.46C45.8,81,39.31,46.94,34.43,47Z"/>
  <path class="c7b847d0-0f24-43c2-8416-2767d54fb9be" d="M85.14.79c9.5.14,7.51,90.13-4.92,150.58-15.84,77.09-26.83,111.4-26.93,112.06s18.18-38.36,20-111.83c.48-19.52-3.2-28.17-2.48-74.59C71.34,42,79.22.7,85.14.79Z"/>
  <path class="c7b847d0-0f24-43c2-8416-2767d54fb9be" d="M61.51,171.07c3.33.06,13.69,37.6-1.72,52.77s-6.27,39-6.3,39.27S46,244.58,57.35,223.92c3-5.43-1.12-9.87-.87-26.14C56.68,185.51,59.44,171,61.51,171.07Z"/>
</svg>
